<svg xmlns="http://www.w3.org/2000/svg" width="1400" height="900" viewBox="0 0 1400 900">
  <defs>
    <linearGradient id="g" x1="0" x2="1" y1="0" y2="1">
      <stop offset="0" stop-color="#0f172a"/>
      <stop offset="1" stop-color="#0b3b3a"/>
    </linearGradient>
    <radialGradient id="r" cx="75%" cy="25%" r="60%">
      <stop offset="0" stop-color="#14b8a6" stop-opacity="0.55"/>
      <stop offset="1" stop-color="#14b8a6" stop-opacity="0"/>
    </radialGradient>
  </defs>
  <rect width="1400" height="900" fill="url(#g)"/>
  <rect width="1400" height="900" fill="url(#r)"/>
  <g opacity="0.15" stroke="#ffffff">
    <path d="M120 760 C 320 540, 520 560, 720 420 S 1120 260, 1280 120" fill="none" stroke-width="6"/>
    <path d="M80 640 C 340 420, 520 460, 760 320 S 1160 220, 1320 80" fill="none" stroke-width="3"/>
  </g>
  <g>
    <rect x="820" y="250" width="440" height="520" rx="26" fill="#0f172a" opacity="0.82"/>
    <rect x="860" y="300" width="360" height="210" rx="18" fill="#111827" opacity="0.9"/>
    <circle cx="900" cy="330" r="10" fill="#14b8a6"/>
    <circle cx="930" cy="330" r="10" fill="#f59e0b"/>
    <circle cx="960" cy="330" r="10" fill="#ef4444"/>
    <path d="M910 450 L1030 380 L1030 520 Z" fill="#14b8a6" opacity="0.9"/>
    <rect x="860" y="540" width="360" height="22" rx="11" fill="#334155"/>
    <rect x="860" y="576" width="300" height="22" rx="11" fill="#334155"/>
    <rect x="860" y="612" width="340" height="22" rx="11" fill="#334155"/>
    <rect x="860" y="648" width="260" height="22" rx="11" fill="#334155"/>
  </g>
  <text x="120" y="210" font-family="Arial, Helvetica, sans-serif" font-size="64" fill="#ffffff" font-weight="700">Conteúdo que lota</text>
  <text x="120" y="270" font-family="Arial, Helvetica, sans-serif" font-size="28" fill="#cbd5e1">Vídeos curtos para Instagram e TikTok focados em experiência e resultado.</text>
</svg>