<svg xmlns="http://www.w3.org/2000/svg" width="1200" height="800" viewBox="0 0 1200 800">
  <rect width="1200" height="800" fill="#0f172a"/>
  <g opacity="0.18">
    <circle cx="260" cy="260" r="180" fill="#14b8a6"/>
    <circle cx="940" cy="560" r="220" fill="#22c55e"/>
  </g>
  <g fill="#111827">
    <rect x="120" y="140" width="300" height="220" rx="18"/>
    <rect x="450" y="140" width="300" height="220" rx="18"/>
    <rect x="780" y="140" width="300" height="220" rx="18"/>
    <rect x="120" y="400" width="460" height="260" rx="18"/>
    <rect x="610" y="400" width="470" height="260" rx="18"/>
  </g>
  <g fill="#334155">
    <rect x="150" y="170" width="240" height="18" rx="9"/>
    <rect x="480" y="170" width="240" height="18" rx="9"/>
    <rect x="810" y="170" width="240" height="18" rx="9"/>
    <rect x="150" y="430" width="400" height="18" rx="9"/>
    <rect x="640" y="430" width="410" height="18" rx="9"/>
  </g>
  <text x="120" y="100" font-family="Arial, Helvetica, sans-serif" font-size="44" fill="#ffffff" font-weight="700">Portfólio</text>
  <text x="120" y="730" font-family="Arial, Helvetica, sans-serif" font-size="22" fill="#cbd5e1">Substitua estas imagens por prints e capas dos seus vídeos.</text>
</svg>